<?xml version="1.0" encoding="iso-8859-1"?>
<!-- Generator: Adobe Illustrator 19.0.0, SVG Export Plug-In . SVG Version: 6.00 Build 0)  -->
<svg version="1.1" id="Capa_1" xmlns="http://www.w3.org/2000/svg" xmlns:xlink="http://www.w3.org/1999/xlink" x="0px" y="0px"
	 viewBox="0 0 490.06 490.06" style="enable-background:new 0 0 490.06 490.06;" xml:space="preserve">
<g>
	<g>
		<g>
			<g>
				<path d="M469.137,490.036L469.137,490.036h-448.3c-7.3,0-27-8-18.8-29.2l224.2-449.3c9.7-18.1,32.4-12.4,37.5,0l223.1,446.2
					C496.837,476.536,480.837,490.736,469.137,490.036z M53.137,449.336h382.6l-190.7-383.6L53.137,449.336z"/>
			</g>
			<g>
				<path d="M209.537,419.136c-9.4-5.2-13.6-17.7-7.3-28.1l37.5-65.7l-26.1-8.3c-5.2-2.1-19.6-11.3-11.5-28.1l38.6-69.9
					c5.2-9.4,17.7-13.6,28.1-8.3c9.4,5.2,13.6,17.7,8.3,28.1l-27.1,48l26.1,9.4c16.7,7,15.3,23.7,11.5,29.2l-50,86.5
					C234.537,418.136,222.837,427.236,209.537,419.136z"/>
			</g>
		</g>
	</g>
</g>
<g>
</g>
<g>
</g>
<g>
</g>
<g>
</g>
<g>
</g>
<g>
</g>
<g>
</g>
<g>
</g>
<g>
</g>
<g>
</g>
<g>
</g>
<g>
</g>
<g>
</g>
<g>
</g>
<g>
</g>
</svg>
